# xmcd
#
# Track frame offsets: 
#        150
#        19637
#        37615
#        61425
#        79260
#        98245
#        118850
#        137560
#        152875
#        168442
#
# Disc length: 2451 seconds
#
# Revision: 0
# Processed by: cddbd v1.5PL3 Copyright (c) Steve Scherf et al.
# Submitted via: ExactAudioCopy v0.90b4
#
DISCID=7809910a
DTITLE=Ronnie Milsap - One More Try For Love
DYEAR=1900
DGENRE=Country
TTITLE0=One More Try For Love
TTITLE1=She Loves My Car
TTITLE2=Still Losing You
TTITLE3=Suburbia
TTITLE4=Prisoner Of The Highway
TTITLE5=She's Always In Love
TTITLE6=I Might Have Said
TTITLE7=I Guess I Just Missed You
TTITLE8=I'll Take Care Of You
TTITLE9=Night By Night
EXTD=
EXTT0=
EXTT1=
EXTT2=
EXTT3=
EXTT4=
EXTT5=
EXTT6=
EXTT7=
EXTT8=
EXTT9=
PLAYORDER=
